<mxfile host="app.diagrams.net" modified="2021-03-22T08:14:07.734Z" agent="5.0 (Windows NT 10.0; Win64; x64) AppleWebKit/537.36 (KHTML, like Gecko) Chrome/87.0.4280.66 Safari/537.36" etag="kpMp_uEMi4mosLQbxms-" version="14.4.9" type="github">
  <diagram id="3228e29e-7158-1315-38df-8450db1d8a1d" name="Page-1">
    <mxGraphModel dx="1185" dy="1462" grid="1" gridSize="10" guides="1" tooltips="1" connect="1" arrows="1" fold="1" page="1" pageScale="1" pageWidth="1169" pageHeight="827" background="#ffffff" math="0" shadow="0">
      <root>
        <mxCell id="0" />
        <mxCell id="1" parent="0" />
        <mxCell id="21600" value="H" style="text;html=1;strokeColor=none;fillColor=none;align=center;verticalAlign=middle;whiteSpace=wrap;rounded=0;shadow=0;labelBackgroundColor=none;fontFamily=Helvetica;fontSize=14;fontColor=#2F5B7C;" parent="1" vertex="1">
          <mxGeometry x="394.5" y="223.5" width="40" height="20" as="geometry" />
        </mxCell>
        <mxCell id="21601" value="G" style="text;html=1;strokeColor=none;fillColor=none;align=center;verticalAlign=middle;whiteSpace=wrap;rounded=0;shadow=0;labelBackgroundColor=none;fontFamily=Helvetica;fontSize=14;fontColor=#2F5B7C;" parent="1" vertex="1">
          <mxGeometry x="324.5" y="403.5" width="40" height="20" as="geometry" />
        </mxCell>
        <mxCell id="21602" value="F" style="text;html=1;strokeColor=none;fillColor=none;align=center;verticalAlign=middle;whiteSpace=wrap;rounded=0;shadow=0;labelBackgroundColor=none;fontFamily=Helvetica;fontSize=14;fontColor=#2F5B7C;" parent="1" vertex="1">
          <mxGeometry x="394.5" y="573.5" width="40" height="20" as="geometry" />
        </mxCell>
        <mxCell id="21603" value="E" style="text;html=1;strokeColor=none;fillColor=none;align=center;verticalAlign=middle;whiteSpace=wrap;rounded=0;shadow=0;labelBackgroundColor=none;fontFamily=Helvetica;fontSize=14;fontColor=#2F5B7C;" parent="1" vertex="1">
          <mxGeometry x="564.5" y="653.5" width="40" height="20" as="geometry" />
        </mxCell>
        <mxCell id="21604" value="D" style="text;html=1;strokeColor=none;fillColor=none;align=center;verticalAlign=middle;whiteSpace=wrap;rounded=0;shadow=0;labelBackgroundColor=none;fontFamily=Helvetica;fontSize=14;fontColor=#2F5B7C;" parent="1" vertex="1">
          <mxGeometry x="744.5" y="573.5" width="40" height="20" as="geometry" />
        </mxCell>
        <mxCell id="21605" value="C" style="text;html=1;strokeColor=none;fillColor=none;align=center;verticalAlign=middle;whiteSpace=wrap;rounded=0;shadow=0;labelBackgroundColor=none;fontFamily=Helvetica;fontSize=14;fontColor=#2F5B7C;" parent="1" vertex="1">
          <mxGeometry x="814.5" y="403.5" width="40" height="20" as="geometry" />
        </mxCell>
        <mxCell id="21606" value="B" style="text;html=1;strokeColor=none;fillColor=none;align=center;verticalAlign=middle;whiteSpace=wrap;rounded=0;shadow=0;labelBackgroundColor=none;fontFamily=Helvetica;fontSize=14;fontColor=#2F5B7C;" parent="1" vertex="1">
          <mxGeometry x="744.5" y="223.5" width="40" height="20" as="geometry" />
        </mxCell>
        <mxCell id="21607" value="A" style="text;html=1;strokeColor=none;fillColor=none;align=center;verticalAlign=middle;whiteSpace=wrap;rounded=0;shadow=0;labelBackgroundColor=none;fontFamily=Helvetica;fontSize=14;fontColor=#2F5B7C;" parent="1" vertex="1">
          <mxGeometry x="564.5" y="143.5" width="40" height="20" as="geometry" />
        </mxCell>
        <mxCell id="21608" value="HA" style="text;html=1;strokeColor=none;fillColor=none;align=center;verticalAlign=middle;whiteSpace=wrap;rounded=0;shadow=0;labelBackgroundColor=none;fontFamily=Helvetica;fontSize=14;fontColor=#2F5B7C;" parent="1" vertex="1">
          <mxGeometry x="479.5" y="213.5" width="40" height="20" as="geometry" />
        </mxCell>
        <mxCell id="21609" value="AB" style="text;html=1;strokeColor=none;fillColor=none;align=center;verticalAlign=middle;whiteSpace=wrap;rounded=0;shadow=0;labelBackgroundColor=none;fontFamily=Helvetica;fontSize=14;fontColor=#2F5B7C;" parent="1" vertex="1">
          <mxGeometry x="644.5" y="213.5" width="40" height="20" as="geometry" />
        </mxCell>
        <mxCell id="21610" value="ABC" style="text;html=1;strokeColor=none;fillColor=none;align=center;verticalAlign=middle;whiteSpace=wrap;rounded=0;shadow=0;labelBackgroundColor=none;fontFamily=Helvetica;fontSize=14;fontColor=#2F5B7C;" parent="1" vertex="1">
          <mxGeometry x="674.5" y="293.5" width="40" height="20" as="geometry" />
        </mxCell>
        <mxCell id="21611" value="BC" style="text;html=1;strokeColor=none;fillColor=none;align=center;verticalAlign=middle;whiteSpace=wrap;rounded=0;shadow=0;labelBackgroundColor=none;fontFamily=Helvetica;fontSize=14;fontColor=#2F5B7C;" parent="1" vertex="1">
          <mxGeometry x="764.5" y="328.5" width="40" height="20" as="geometry" />
        </mxCell>
        <mxCell id="21612" value="BCD" style="text;html=1;strokeColor=none;fillColor=none;align=center;verticalAlign=middle;whiteSpace=wrap;rounded=0;shadow=0;labelBackgroundColor=none;fontFamily=Helvetica;fontSize=14;fontColor=#2F5B7C;" parent="1" vertex="1">
          <mxGeometry x="724.5" y="403.5" width="40" height="20" as="geometry" />
        </mxCell>
        <mxCell id="21613" value="CD" style="text;html=1;strokeColor=none;fillColor=none;align=center;verticalAlign=middle;whiteSpace=wrap;rounded=0;shadow=0;labelBackgroundColor=none;fontFamily=Helvetica;fontSize=14;fontColor=#2F5B7C;" parent="1" vertex="1">
          <mxGeometry x="764.5" y="483.5" width="40" height="20" as="geometry" />
        </mxCell>
        <mxCell id="21614" value="ED" style="text;html=1;strokeColor=none;fillColor=none;align=center;verticalAlign=middle;whiteSpace=wrap;rounded=0;shadow=0;labelBackgroundColor=none;fontFamily=Helvetica;fontSize=14;fontColor=#2F5B7C;" parent="1" vertex="1">
          <mxGeometry x="644.5" y="593.5" width="40" height="20" as="geometry" />
        </mxCell>
        <mxCell id="21615" value="CDE" style="text;html=1;strokeColor=none;fillColor=none;align=center;verticalAlign=middle;whiteSpace=wrap;rounded=0;shadow=0;labelBackgroundColor=none;fontFamily=Helvetica;fontSize=14;fontColor=#2F5B7C;" parent="1" vertex="1">
          <mxGeometry x="674.5" y="513.5" width="40" height="20" as="geometry" />
        </mxCell>
        <mxCell id="21616" value="EF" style="text;html=1;strokeColor=none;fillColor=none;align=center;verticalAlign=middle;whiteSpace=wrap;rounded=0;shadow=0;labelBackgroundColor=none;fontFamily=Helvetica;fontSize=14;fontColor=#2F5B7C;" parent="1" vertex="1">
          <mxGeometry x="484.5" y="593.5" width="40" height="20" as="geometry" />
        </mxCell>
        <mxCell id="21617" value="DEF" style="text;html=1;strokeColor=none;fillColor=none;align=center;verticalAlign=middle;whiteSpace=wrap;rounded=0;shadow=0;labelBackgroundColor=none;fontFamily=Helvetica;fontSize=14;fontColor=#2F5B7C;" parent="1" vertex="1">
          <mxGeometry x="564.5" y="553.5" width="40" height="20" as="geometry" />
        </mxCell>
        <mxCell id="21618" value="EFG" style="text;html=1;strokeColor=none;fillColor=none;align=center;verticalAlign=middle;whiteSpace=wrap;rounded=0;shadow=0;labelBackgroundColor=none;fontFamily=Helvetica;fontSize=14;fontColor=#2F5B7C;" parent="1" vertex="1">
          <mxGeometry x="459.5" y="513.5" width="40" height="20" as="geometry" />
        </mxCell>
        <mxCell id="21619" value="FG" style="text;html=1;strokeColor=none;fillColor=none;align=center;verticalAlign=middle;whiteSpace=wrap;rounded=0;shadow=0;labelBackgroundColor=none;fontFamily=Helvetica;fontSize=14;fontColor=#2F5B7C;" parent="1" vertex="1">
          <mxGeometry x="374.5" y="488.5" width="40" height="20" as="geometry" />
        </mxCell>
        <mxCell id="21620" value="FGH" style="text;html=1;strokeColor=none;fillColor=none;align=center;verticalAlign=middle;whiteSpace=wrap;rounded=0;shadow=0;labelBackgroundColor=none;fontFamily=Helvetica;fontSize=14;fontColor=#2F5B7C;" parent="1" vertex="1">
          <mxGeometry x="414.5" y="413.5" width="40" height="20" as="geometry" />
        </mxCell>
        <mxCell id="21621" value="GH" style="text;html=1;strokeColor=none;fillColor=none;align=center;verticalAlign=middle;whiteSpace=wrap;rounded=0;shadow=0;labelBackgroundColor=none;fontFamily=Helvetica;fontSize=14;fontColor=#2F5B7C;" parent="1" vertex="1">
          <mxGeometry x="374.5" y="323.5" width="40" height="20" as="geometry" />
        </mxCell>
        <mxCell id="21622" value="GHA" style="text;html=1;strokeColor=none;fillColor=none;align=center;verticalAlign=middle;whiteSpace=wrap;rounded=0;shadow=0;labelBackgroundColor=none;fontFamily=Helvetica;fontSize=14;fontColor=#2F5B7C;" parent="1" vertex="1">
          <mxGeometry x="459.5" y="293.5" width="40" height="20" as="geometry" />
        </mxCell>
        <mxCell id="21623" value="ABH" style="text;html=1;strokeColor=none;fillColor=none;align=center;verticalAlign=middle;whiteSpace=wrap;rounded=0;shadow=0;labelBackgroundColor=none;fontFamily=Helvetica;fontSize=14;fontColor=#2F5B7C;" parent="1" vertex="1">
          <mxGeometry x="564.5" y="243.5" width="40" height="20" as="geometry" />
        </mxCell>
        <mxCell id="21624" value="BDE" style="text;html=1;strokeColor=none;fillColor=none;align=center;verticalAlign=middle;whiteSpace=wrap;rounded=0;shadow=0;labelBackgroundColor=none;fontFamily=Helvetica;fontSize=14;fontColor=#2F5B7C;" parent="1" vertex="1">
          <mxGeometry x="659.5" y="443.5" width="40" height="20" as="geometry" />
        </mxCell>
        <mxCell id="21625" value="CDEF" style="text;html=1;strokeColor=none;fillColor=none;align=center;verticalAlign=middle;whiteSpace=wrap;rounded=0;shadow=0;labelBackgroundColor=none;fontFamily=Helvetica;fontSize=14;fontColor=#2F5B7C;" parent="1" vertex="1">
          <mxGeometry x="604.5" y="498.5" width="40" height="20" as="geometry" />
        </mxCell>
        <mxCell id="21626" value="DEFG" style="text;html=1;strokeColor=none;fillColor=none;align=center;verticalAlign=middle;whiteSpace=wrap;rounded=0;shadow=0;labelBackgroundColor=none;fontFamily=Helvetica;fontSize=14;fontColor=#2F5B7C;" parent="1" vertex="1">
          <mxGeometry x="524.5" y="493.5" width="40" height="20" as="geometry" />
        </mxCell>
        <mxCell id="21627" value="EFGH" style="text;html=1;strokeColor=none;fillColor=none;align=center;verticalAlign=middle;whiteSpace=wrap;rounded=0;shadow=0;labelBackgroundColor=none;fontFamily=Helvetica;fontSize=14;fontColor=#2F5B7C;" parent="1" vertex="1">
          <mxGeometry x="474.5" y="443.5" width="40" height="20" as="geometry" />
        </mxCell>
        <mxCell id="21628" value="FGHA" style="text;html=1;strokeColor=none;fillColor=none;align=center;verticalAlign=bottom;whiteSpace=wrap;rounded=0;shadow=0;labelBackgroundColor=none;fontFamily=Helvetica;fontSize=14;fontColor=#2F5B7C;fontStyle=0" parent="1" vertex="1">
          <mxGeometry x="474.5" y="363.5" width="40" height="20" as="geometry" />
        </mxCell>
        <mxCell id="21629" value="ABGH" style="text;html=1;strokeColor=none;fillColor=none;align=center;verticalAlign=middle;whiteSpace=wrap;rounded=0;shadow=0;labelBackgroundColor=none;fontFamily=Helvetica;fontSize=14;fontColor=#2F5B7C;" parent="1" vertex="1">
          <mxGeometry x="519.5" y="303.5" width="40" height="20" as="geometry" />
        </mxCell>
        <mxCell id="21631" value="ABCD" style="text;html=1;strokeColor=none;fillColor=none;align=center;verticalAlign=middle;whiteSpace=wrap;rounded=0;shadow=0;labelBackgroundColor=none;fontFamily=Helvetica;fontSize=14;fontColor=#2F5B7C;" parent="1" vertex="1">
          <mxGeometry x="659.5" y="363.5" width="40" height="20" as="geometry" />
        </mxCell>
        <mxCell id="21632" value="BCEF" style="text;html=1;strokeColor=none;fillColor=none;align=center;verticalAlign=middle;whiteSpace=wrap;rounded=0;shadow=0;labelBackgroundColor=none;fontFamily=Helvetica;fontSize=14;fontColor=#2F5B7C;" parent="1" vertex="1">
          <mxGeometry x="614.5" y="453.5" width="40" height="20" as="geometry" />
        </mxCell>
        <mxCell id="21633" value="ABCGH" style="text;html=1;strokeColor=none;fillColor=none;align=center;verticalAlign=middle;whiteSpace=wrap;rounded=0;shadow=0;labelBackgroundColor=none;fontFamily=Helvetica;fontSize=14;fontColor=#2F5B7C;" parent="1" vertex="1">
          <mxGeometry x="561.5" y="333.5" width="40" height="20" as="geometry" />
        </mxCell>
        <mxCell id="z6-whETtt6vRyLOc3gIW-21634" value="" style="rounded=0;whiteSpace=wrap;html=1;" vertex="1" parent="1">
          <mxGeometry x="150" y="258.5" width="120" height="60" as="geometry" />
        </mxCell>
        <mxCell id="z6-whETtt6vRyLOc3gIW-21635" value="Actor" style="shape=umlActor;verticalLabelPosition=bottom;verticalAlign=top;html=1;outlineConnect=0;" vertex="1" parent="1">
          <mxGeometry x="4160" y="-106.75" width="90" height="280.25" as="geometry" />
        </mxCell>
        <mxCell id="z6-whETtt6vRyLOc3gIW-21636" value="" style="endArrow=classic;startArrow=classic;html=1;jumpStyle=gap;horizontal=0;" edge="1" parent="1">
          <mxGeometry width="50" height="50" relative="1" as="geometry">
            <mxPoint x="140" y="503.5" as="sourcePoint" />
            <mxPoint x="190" y="454" as="targetPoint" />
          </mxGeometry>
        </mxCell>
        <mxCell id="z6-whETtt6vRyLOc3gIW-21637" value="" style="shape=table;html=1;whiteSpace=wrap;startSize=0;container=1;collapsible=0;childLayout=tableLayout;shadow=0;" vertex="1" parent="1">
          <mxGeometry x="560" y="280" width="240" height="119.99999999999977" as="geometry" />
        </mxCell>
        <mxCell id="z6-whETtt6vRyLOc3gIW-21638" value="" style="shape=partialRectangle;html=1;whiteSpace=wrap;collapsible=0;dropTarget=0;pointerEvents=0;fillColor=none;top=0;left=0;bottom=0;right=0;points=[[0,0.5],[1,0.5]];portConstraint=eastwest;" vertex="1" parent="z6-whETtt6vRyLOc3gIW-21637">
          <mxGeometry width="240" height="40" as="geometry" />
        </mxCell>
        <mxCell id="z6-whETtt6vRyLOc3gIW-21639" value="" style="shape=partialRectangle;html=1;whiteSpace=wrap;connectable=0;overflow=hidden;fillColor=none;top=0;left=0;bottom=0;right=0;" vertex="1" parent="z6-whETtt6vRyLOc3gIW-21638">
          <mxGeometry width="60" height="40" as="geometry" />
        </mxCell>
        <mxCell id="z6-whETtt6vRyLOc3gIW-21640" value="" style="shape=partialRectangle;html=1;whiteSpace=wrap;connectable=0;overflow=hidden;fillColor=none;top=0;left=0;bottom=0;right=0;" vertex="1" parent="z6-whETtt6vRyLOc3gIW-21638">
          <mxGeometry x="60" width="60" height="40" as="geometry" />
        </mxCell>
        <mxCell id="z6-whETtt6vRyLOc3gIW-21641" value="" style="shape=partialRectangle;html=1;whiteSpace=wrap;connectable=0;overflow=hidden;fillColor=none;top=0;left=0;bottom=0;right=0;" vertex="1" parent="z6-whETtt6vRyLOc3gIW-21638">
          <mxGeometry x="120" width="60" height="40" as="geometry" />
        </mxCell>
        <mxCell id="z6-whETtt6vRyLOc3gIW-21642" value="" style="shape=partialRectangle;html=1;whiteSpace=wrap;connectable=0;overflow=hidden;fillColor=none;top=0;left=0;bottom=0;right=0;" vertex="1" parent="z6-whETtt6vRyLOc3gIW-21638">
          <mxGeometry x="180" width="60" height="40" as="geometry" />
        </mxCell>
        <mxCell id="z6-whETtt6vRyLOc3gIW-21643" value="" style="shape=partialRectangle;html=1;whiteSpace=wrap;collapsible=0;dropTarget=0;pointerEvents=0;fillColor=none;top=0;left=0;bottom=0;right=0;points=[[0,0.5],[1,0.5]];portConstraint=eastwest;" vertex="1" parent="z6-whETtt6vRyLOc3gIW-21637">
          <mxGeometry y="40" width="240" height="40" as="geometry" />
        </mxCell>
        <mxCell id="z6-whETtt6vRyLOc3gIW-21644" value="" style="shape=partialRectangle;html=1;whiteSpace=wrap;connectable=0;overflow=hidden;fillColor=none;top=0;left=0;bottom=0;right=0;" vertex="1" parent="z6-whETtt6vRyLOc3gIW-21643">
          <mxGeometry width="60" height="40" as="geometry" />
        </mxCell>
        <mxCell id="z6-whETtt6vRyLOc3gIW-21645" value="" style="shape=partialRectangle;html=1;whiteSpace=wrap;connectable=0;overflow=hidden;fillColor=none;top=0;left=0;bottom=0;right=0;" vertex="1" parent="z6-whETtt6vRyLOc3gIW-21643">
          <mxGeometry x="60" width="60" height="40" as="geometry" />
        </mxCell>
        <mxCell id="z6-whETtt6vRyLOc3gIW-21646" value="" style="shape=partialRectangle;html=1;whiteSpace=wrap;connectable=0;overflow=hidden;fillColor=none;top=0;left=0;bottom=0;right=0;" vertex="1" parent="z6-whETtt6vRyLOc3gIW-21643">
          <mxGeometry x="120" width="60" height="40" as="geometry" />
        </mxCell>
        <mxCell id="z6-whETtt6vRyLOc3gIW-21647" value="" style="shape=partialRectangle;html=1;whiteSpace=wrap;connectable=0;overflow=hidden;fillColor=none;top=0;left=0;bottom=0;right=0;" vertex="1" parent="z6-whETtt6vRyLOc3gIW-21643">
          <mxGeometry x="180" width="60" height="40" as="geometry" />
        </mxCell>
        <mxCell id="z6-whETtt6vRyLOc3gIW-21648" value="" style="shape=partialRectangle;html=1;whiteSpace=wrap;collapsible=0;dropTarget=0;pointerEvents=0;fillColor=none;top=0;left=0;bottom=0;right=0;points=[[0,0.5],[1,0.5]];portConstraint=eastwest;" vertex="1" parent="z6-whETtt6vRyLOc3gIW-21637">
          <mxGeometry y="80" width="240" height="40" as="geometry" />
        </mxCell>
        <mxCell id="z6-whETtt6vRyLOc3gIW-21649" value="" style="shape=partialRectangle;html=1;whiteSpace=wrap;connectable=0;overflow=hidden;fillColor=none;top=0;left=0;bottom=0;right=0;" vertex="1" parent="z6-whETtt6vRyLOc3gIW-21648">
          <mxGeometry width="60" height="40" as="geometry" />
        </mxCell>
        <mxCell id="z6-whETtt6vRyLOc3gIW-21650" value="" style="shape=partialRectangle;html=1;whiteSpace=wrap;connectable=0;overflow=hidden;fillColor=none;top=0;left=0;bottom=0;right=0;" vertex="1" parent="z6-whETtt6vRyLOc3gIW-21648">
          <mxGeometry x="60" width="60" height="40" as="geometry" />
        </mxCell>
        <mxCell id="z6-whETtt6vRyLOc3gIW-21651" value="" style="shape=partialRectangle;html=1;whiteSpace=wrap;connectable=0;overflow=hidden;fillColor=none;top=0;left=0;bottom=0;right=0;" vertex="1" parent="z6-whETtt6vRyLOc3gIW-21648">
          <mxGeometry x="120" width="60" height="40" as="geometry" />
        </mxCell>
        <mxCell id="z6-whETtt6vRyLOc3gIW-21652" value="" style="shape=partialRectangle;html=1;whiteSpace=wrap;connectable=0;overflow=hidden;fillColor=none;top=0;left=0;bottom=0;right=0;" vertex="1" parent="z6-whETtt6vRyLOc3gIW-21648">
          <mxGeometry x="180" width="60" height="40" as="geometry" />
        </mxCell>
      </root>
    </mxGraphModel>
  </diagram>
</mxfile>
